<svg xmlns="http://www.w3.org/2000/svg" viewBox="0 0 650 450"><defs><linearGradient id="g" x2="1" y2="1"><stop stop-color="#171731"/><stop offset=".6" stop-color="#65344f"/><stop offset="1" stop-color="#111a2b"/></linearGradient></defs><path fill="url(#g)" d="M0 0h650v450H0z"/><path d="M40 420V90h32v330" fill="none" stroke="#daa8de" stroke-opacity=".18" stroke-width="3"/><path d="M102 420V130h32v330" fill="none" stroke="#daa8de" stroke-opacity=".18" stroke-width="3"/><path d="M164 420V170h32v330" fill="none" stroke="#daa8de" stroke-opacity=".18" stroke-width="3"/><path d="M226 420V90h32v330" fill="none" stroke="#daa8de" stroke-opacity=".18" stroke-width="3"/><path d="M288 420V130h32v330" fill="none" stroke="#daa8de" stroke-opacity=".18" stroke-width="3"/><path d="M350 420V170h32v330" fill="none" stroke="#daa8de" stroke-opacity=".18" stroke-width="3"/><path d="M412 420V90h32v330" fill="none" stroke="#daa8de" stroke-opacity=".18" stroke-width="3"/><path d="M474 420V130h32v330" fill="none" stroke="#daa8de" stroke-opacity=".18" stroke-width="3"/><path d="M536 420V170h32v330" fill="none" stroke="#daa8de" stroke-opacity=".18" stroke-width="3"/><ellipse cx="410" cy="180" rx="110" ry="125" fill="none" stroke="#e5bedc" stroke-opacity=".3" stroke-width="2"/><path d="M0 410 300 260 650 410" fill="none" stroke="#9cbdd7" stroke-opacity=".25"/></svg>
