<svg xmlns="http://www.w3.org/2000/svg"><symbol id="search" viewBox="0 0 24 24" fill="none" stroke="currentColor" stroke-width="1.5" stroke-linecap="round" stroke-linejoin="round"><circle cx="10" cy="10" r="6"/><path d="m15 15 6 6"/></symbol><symbol id="invite" viewBox="0 0 24 24" fill="none" stroke="currentColor" stroke-width="1.5" stroke-linecap="round" stroke-linejoin="round"><circle cx="9" cy="7" r="3"/><path d="M3 21v-3a6 6 0 0 1 12 0v3M19 8v8m-4-4h8"/></symbol><symbol id="chat" viewBox="0 0 24 24" fill="none" stroke="currentColor" stroke-width="1.5" stroke-linecap="round" stroke-linejoin="round"><path d="M4 4h16v12H9l-5 4z"/></symbol><symbol id="send" viewBox="0 0 24 24" fill="none" stroke="currentColor" stroke-width="1.5" stroke-linecap="round" stroke-linejoin="round"><path d="m3 3 19 9-19 9 4-9-4-9zm4 9h15"/></symbol><symbol id="mic" viewBox="0 0 24 24" fill="none" stroke="currentColor" stroke-width="1.5" stroke-linecap="round" stroke-linejoin="round"><rect x="9" y="2" width="6" height="13" rx="3"/><path d="M6 10v2a6 6 0 0 0 12 0v-2M12 18v4m-4 0h8"/></symbol><symbol id="close" viewBox="0 0 24 24" fill="none" stroke="currentColor" stroke-width="1.5" stroke-linecap="round" stroke-linejoin="round"><path d="m5 5 14 14M19 5 5 19"/></symbol></svg>
